<?xml version="1.0" encoding="iso-8859-1"?>
<!-- Generator: Adobe Illustrator 19.0.0, SVG Export Plug-In . SVG Version: 6.00 Build 0)  -->
<svg version="1.1" id="Layer_1" xmlns="http://www.w3.org/2000/svg" xmlns:xlink="http://www.w3.org/1999/xlink" x="0px" y="0px"
	 viewBox="0 0 512 512" style="enable-background:new 0 0 512 512;" xml:space="preserve">
<path style="fill:#FFFFFF;" d="M48,384.552v-277.6c0-6.64,5.4-12.072,12-12.072h392c6.6,0,12,5.432,12,12.072v277.6"/>
<polygon points="512,384.552 0,384.552 0,401.488 25.6,425.12 486.4,425.12 512,401.488 "/>
<path d="M472,384.552h-16V106.96c0-2.2-1.832-4.08-4-4.08H60c-2.168,0-4,1.872-4,4.08v277.592H40V106.96
	c0-11.08,8.968-20.08,20-20.08h392c11.032,0,20,9,20,20.08V384.552z"/>
<polygon style="fill:#13B7E6;" points="303.024,401.384 208.976,401.384 192.976,384.552 319.024,384.552 "/>
<g>
	<path style="fill:#FF583E;" d="M252.808,178.384v-19.128c-5.968-1.704-10.336-4.28-13.128-7.736
		c-2.784-3.456-4.176-7.648-4.176-12.576c0-4.992,1.576-9.184,4.72-12.576c3.152-3.392,7.344-5.344,12.576-5.864v-4.52h6.616v4.52
		c4.84,0.576,8.688,2.232,11.552,4.952c2.856,2.72,4.688,6.368,5.48,10.928l-11.552,1.512c-0.704-3.592-2.528-6.024-5.48-7.304
		v17.848c7.304,1.976,12.28,4.544,14.928,7.696c2.648,3.144,3.976,7.192,3.976,12.12c0,5.504-1.664,10.152-5,13.92
		c-3.328,3.776-7.96,6.088-13.896,6.936v8.536h-6.616v-8.312c-5.264-0.64-9.536-2.6-12.824-5.888
		c-3.288-3.288-5.392-7.928-6.304-13.92l11.912-1.28c0.488,2.432,1.4,4.536,2.736,6.304
		C249.672,176.32,251.16,177.6,252.808,178.384z M252.808,130.456c-1.8,0.608-3.224,1.64-4.288,3.104s-1.6,3.072-1.6,4.84
		c0,1.616,0.488,3.112,1.464,4.496s2.448,2.504,4.432,3.352v-15.792H252.808z M259.424,179.032c2.28-0.424,4.136-1.488,5.568-3.176
		c1.432-1.688,2.144-3.672,2.144-5.96c0-2.04-0.6-3.792-1.8-5.272c-1.2-1.472-3.168-2.608-5.912-3.4L259.424,179.032
		L259.424,179.032z"/>
	<path style="fill:#FF583E;" d="M133.4,349.272v-19.128c-5.968-1.704-10.336-4.28-13.128-7.736
		c-2.784-3.456-4.176-7.648-4.176-12.576c0-4.992,1.576-9.184,4.72-12.576c3.152-3.392,7.344-5.344,12.576-5.864v-4.52h6.616v4.52
		c4.84,0.576,8.688,2.232,11.552,4.952c2.856,2.72,4.688,6.368,5.48,10.928l-11.552,1.512c-0.704-3.592-2.528-6.024-5.48-7.304
		v17.848c7.304,1.976,12.28,4.544,14.928,7.696c2.648,3.144,3.976,7.192,3.976,12.12c0,5.504-1.664,10.152-5,13.92
		c-3.328,3.776-7.96,6.088-13.896,6.936v8.536H133.4v-8.312c-5.264-0.64-9.536-2.6-12.824-5.888
		c-3.288-3.288-5.392-7.928-6.304-13.92l11.912-1.28c0.488,2.432,1.4,4.536,2.736,6.304C130.264,347.2,131.752,348.48,133.4,349.272
		z M133.4,301.344c-1.8,0.608-3.224,1.64-4.288,3.104s-1.6,3.072-1.6,4.84c0,1.616,0.488,3.112,1.464,4.496s2.448,2.504,4.432,3.352
		v-15.792H133.4z M140.016,349.912c2.28-0.424,4.136-1.488,5.568-3.176c1.432-1.688,2.144-3.672,2.144-5.96
		c0-2.04-0.6-3.792-1.8-5.272c-1.2-1.472-3.168-2.608-5.912-3.4L140.016,349.912L140.016,349.912z"/>
	<path style="fill:#FF583E;" d="M372.168,349.272v-19.128c-5.968-1.704-10.336-4.28-13.128-7.736
		c-2.784-3.456-4.176-7.648-4.176-12.576c0-4.992,1.576-9.184,4.72-12.576c3.152-3.392,7.344-5.344,12.576-5.864v-4.52h6.616v4.52
		c4.84,0.576,8.688,2.232,11.552,4.952c2.856,2.72,4.688,6.368,5.48,10.928l-11.552,1.512c-0.704-3.592-2.528-6.024-5.48-7.304
		v17.848c7.304,1.976,12.28,4.544,14.928,7.696c2.648,3.144,3.976,7.192,3.976,12.12c0,5.504-1.664,10.152-5,13.92
		c-3.328,3.776-7.96,6.088-13.896,6.936v8.536h-6.616v-8.312c-5.264-0.64-9.536-2.6-12.824-5.888s-5.392-7.928-6.304-13.92
		l11.912-1.28c0.488,2.432,1.4,4.536,2.736,6.304C369.032,347.2,370.52,348.48,372.168,349.272z M372.168,301.344
		c-1.8,0.608-3.224,1.64-4.288,3.104s-1.6,3.072-1.6,4.84c0,1.616,0.488,3.112,1.464,4.496c0.976,1.384,2.448,2.504,4.432,3.352
		v-15.792H372.168z M378.784,349.912c2.28-0.424,4.136-1.488,5.568-3.176s2.144-3.672,2.144-5.96c0-2.04-0.6-3.792-1.8-5.272
		c-1.2-1.472-3.168-2.608-5.912-3.4L378.784,349.912L378.784,349.912z"/>
</g>
<polygon points="379.752,274.512 371.752,274.512 371.752,249.216 140.248,249.216 140.248,274.512 132.248,274.512 
	132.248,241.216 379.752,241.216 "/>
<rect x="252" y="211.232" width="8" height="34.04"/>
<g>
</g>
<g>
</g>
<g>
</g>
<g>
</g>
<g>
</g>
<g>
</g>
<g>
</g>
<g>
</g>
<g>
</g>
<g>
</g>
<g>
</g>
<g>
</g>
<g>
</g>
<g>
</g>
<g>
</g>
</svg>
