<?xml version="1.0" encoding="iso-8859-1"?>
<!-- Generator: Adobe Illustrator 19.0.0, SVG Export Plug-In . SVG Version: 6.00 Build 0)  -->
<svg version="1.1" id="Layer_1" xmlns="http://www.w3.org/2000/svg" xmlns:xlink="http://www.w3.org/1999/xlink" x="0px" y="0px"
	 viewBox="0 0 512 512" style="enable-background:new 0 0 512 512;" xml:space="preserve">
<g>
	<path style="fill:#E0B394;" d="M126.971,246.71c-13.984-0.62-25.115-12.157-25.115-26.288c0-14.525,11.774-26.31,26.31-26.31
		c1.308,0,2.594,0.09,3.857,0.282"/>
	<path style="fill:#E0B394;" d="M362.469,246.71c13.984-0.62,25.126-12.157,25.126-26.288c0-14.525-11.785-26.31-26.322-26.31
		c-1.308,0-2.605,0.102-3.857,0.282"/>
</g>
<path style="fill:#E6E6E6;" d="M297.91,332.09H191.552c-38.52,0-69.747,31.226-69.747,69.747v102.379h245.85V401.837
	C367.655,363.317,336.429,332.09,297.91,332.09z"/>
<path style="fill:#CCCCCC;" d="M234.525,332.09h-42.974c-38.52,0-69.747,31.226-69.747,69.747v102.379h42.974V401.837
	C164.779,363.317,196.006,332.09,234.525,332.09z"/>
<path style="fill:#E0B394;" d="M294.496,307.854v63.533c0,27.482-22.282,49.764-49.764,49.764c-27.49,0-49.764-22.282-49.764-49.764
	v-63.533H294.496z"/>
<path style="fill:#F7CBA4;" d="M329.082,316.853l-46.294,33.641c-22.69,16.488-53.422,16.488-76.123,0l-46.294-33.641
	c-24.461-17.773-37.701-47.163-34.791-77.262l4.094-42.347l3.936-40.746c5.537-57.222,53.625-100.889,111.118-100.889
	c28.746,0,55.147,10.917,75.052,28.983c19.894,18.067,33.303,43.294,36.066,71.906l3.767,38.964l4.263,44.129
	C366.783,269.69,353.543,299.08,329.082,316.853z"/>
<g>
	<path style="fill:#E0B394;" d="M154.391,255.967c-0.778,13.161,3.507,26.107,11.988,36.201l48.384,59.455
		c2.526,3.011,5.391,5.537,8.492,7.556c-5.819-2.03-11.413-4.94-16.589-8.695l-46.294-33.63
		c-24.461-17.773-37.69-47.163-34.78-77.262l8.018-83.093c5.481-56.67,52.689-100.043,109.448-100.866
		c-34.96,0.846-74.548,33.799-76.612,68.894L154.391,255.967z"/>
	<path style="fill:#E0B394;" d="M359.61,195.462c-54.392-78.131-85.202-36.088-116.012-36.088c-7.533,0-14.48-1.015-20.807-2.684
		c-29.649-7.804-45.73-30.021-45.73-30.021c0,29.322-46.148,73.529-46.148,73.529c-0.429-0.992-0.846-1.985-1.241-2.955
		l3.936-40.746c5.537-57.222,53.625-100.889,111.118-100.889c28.746,0,55.147,10.917,75.052,28.983
		c19.894,18.067,33.303,43.294,36.066,71.906L359.61,195.462z"/>
</g>
<path style="fill:#AF7C38;" d="M369.909,195.456c-60.899-99.242-93.604-51.877-126.308-51.877c-7.533,0-14.48-1.015-20.807-2.684
	c-29.649-7.804-45.73-30.021-45.73-30.021c0,29.322-46.148,73.53-46.148,73.53c-54.042-126.083,59.523-142.39,59.523-142.39
	c8.921-20.356,36.99-35.479,71.094-34.148c12.247,0.462,25.262,3.045,38.456,8.278C419.53,63.509,369.909,195.456,369.909,195.456z"
	/>
<path style="fill:#9B6C34;" d="M222.793,140.895c-29.649-7.804-45.73-30.021-45.73-30.021c0,29.322-46.148,73.53-46.148,73.53
	c-54.042-126.083,59.523-142.39,59.523-142.39c8.921-20.356,36.99-35.479,71.094-34.148
	C259.705,8.576,187.393,37.469,222.793,140.895z"/>
<path style="fill:#F95428;" d="M460.071,397.176h-98.627c-23.046,0-41.727,18.681-41.727,41.727
	c0,23.046,18.681,41.727,41.727,41.727c16.581,0,30.904-9.673,37.633-23.683h23.36c6.73,14.01,21.052,23.683,37.633,23.683
	c23.046,0,41.727-18.681,41.727-41.727C501.798,415.859,483.116,397.176,460.071,397.176z"/>
<path style="fill:#FFFFFF;" d="M374.978,430.445h-6.203v-6.203c0-4.671-3.786-8.458-8.458-8.458c-4.672,0-8.458,3.787-8.458,8.458
	v6.203h-6.203c-4.672,0-8.458,3.787-8.458,8.458c0,4.671,3.786,8.458,8.458,8.458h6.203v6.203c0,4.671,3.786,8.458,8.458,8.458
	c4.672,0,8.458-3.787,8.458-8.458v-6.203h6.203c4.672,0,8.458-3.787,8.458-8.458C383.436,434.232,379.649,430.445,374.978,430.445z"
	/>
<path style="fill:#F9C573;" d="M49.996,308.439l-43.381-43.38c23.958-23.958,62.802-23.958,86.761,0s23.958,62.802,0,86.761
	s-62.802,23.958-86.761,0L49.996,308.439z"/>
<path style="fill:#71C5F4;" d="M449.974,185.723L449.974,185.723c34.257,0,62.026,27.77,62.026,62.026v49.057v23.329
	c0,4.632-3.569,8.67-8.199,8.809c-4.791,0.143-8.718-3.697-8.718-8.455v-5.827c0-5.19-4.208-9.398-9.398-9.398h-0.001
	c-5.19,0-9.398,4.208-9.398,9.398v5.473c0,4.632-3.569,8.67-8.199,8.809c-4.791,0.143-8.718-3.697-8.718-8.455v-5.827
	c0-5.19-4.208-9.398-9.398-9.398h-0.001c-5.19,0-9.398,4.208-9.398,9.398v5.473c0,4.632-3.569,8.67-8.199,8.809
	c-4.791,0.143-8.718-3.697-8.718-8.455v-5.827c0-5.19-4.208-9.398-9.398-9.398s-9.397,4.208-9.397,9.398v5.473
	c0,4.632-3.569,8.67-8.199,8.809c-4.791,0.143-8.718-3.697-8.718-8.455v-23.683v-49.057
	C387.947,213.493,415.717,185.723,449.974,185.723z"/>
<path style="fill:#85D6F9;" d="M435.528,196.168c4.597-1.285,9.437-1.987,14.444-1.987l0,0c29.585,0,53.568,23.983,53.568,53.568
	v34.613c0,7.978-6.467,14.444-14.444,14.444l0,0c-7.978,0-14.444-6.467-14.444-14.444v-34.613
	C474.652,223.172,458.093,202.474,435.528,196.168z"/>
<g>
	<circle style="fill:#666666;" cx="425.727" cy="256.203" r="8.458"/>
	<circle style="fill:#666666;" cx="474.22" cy="256.203" r="8.458"/>
</g>
<path style="fill:#F2F2F2;" d="M288.876,277.776c0,0-0.643,1.579-1.996,4.071c-0.327,0.643-0.71,1.319-1.139,2.053
	c-0.508,0.722-1.094,1.455-1.725,2.278c-0.632,0.823-1.353,1.658-2.12,2.583c-0.271,0.35-0.564,0.643-0.88,0.947
	c-0.113,0.113-0.237,0.226-0.361,0.338c-0.44,0.406-0.891,0.835-1.353,1.263c-0.925,0.868-1.928,1.725-2.977,2.628
	c-1.105,0.812-2.289,1.579-3.507,2.413c-0.609,0.417-1.241,0.823-1.883,1.229c-0.643,0.383-1.331,0.699-2.03,1.049
	c-1.376,0.699-2.808,1.376-4.285,2.053c-3.045,1.038-6.214,2.255-9.597,2.763c-3.338,0.778-6.823,0.902-10.296,1.071
	c-3.473-0.169-6.958-0.282-10.296-1.06c-3.383-0.508-6.552-1.725-9.597-2.763c-1.477-0.665-2.91-1.342-4.297-2.041
	c-0.688-0.35-1.376-0.665-2.03-1.049c-0.632-0.417-1.263-0.812-1.872-1.229c-1.218-0.835-2.413-1.613-3.519-2.413
	c-1.049-0.902-2.041-1.771-2.977-2.628c-0.462-0.44-0.902-0.857-1.342-1.274c-0.158-0.147-0.316-0.293-0.474-0.44
	c-0.271-0.271-0.53-0.53-0.756-0.835c-0.733-0.891-1.444-1.714-2.064-2.526c-0.609-0.823-1.207-1.545-1.703-2.267
	c-0.451-0.767-0.868-1.466-1.218-2.109c-1.41-2.571-1.996-4.105-1.996-4.105s1.669,0.507,4.24,1.545
	c0.654,0.248,1.331,0.553,2.086,0.857c0.801,0.237,1.624,0.541,2.504,0.835c0.891,0.293,1.782,0.654,2.729,0.992
	c0.936,0.361,1.996,0.598,3.045,0.913c1.049,0.305,2.098,0.677,3.192,1.004c1.139,0.248,2.278,0.541,3.451,0.823
	c0.586,0.135,1.162,0.305,1.748,0.462c0.598,0.135,1.218,0.214,1.827,0.338c1.229,0.214,2.458,0.462,3.688,0.744
	c2.56,0.237,5.086,0.801,7.725,0.902c2.605,0.338,5.267,0.248,7.906,0.406c2.65-0.158,5.312-0.056,7.917-0.395
	c2.639-0.09,5.165-0.665,7.725-0.902c1.229-0.271,2.458-0.519,3.688-0.733c0.609-0.124,1.229-0.203,1.827-0.338
	c0.586-0.169,1.173-0.327,1.748-0.462c1.173-0.282,2.312-0.586,3.451-0.823c1.105-0.327,2.154-0.699,3.203-1.004
	c1.038-0.316,2.12-0.564,3.022-0.913c0.925-0.316,1.793-0.665,2.673-0.936c0.868-0.293,1.68-0.586,2.481-0.823
	c0.789-0.338,1.489-0.665,2.154-0.925C287.241,278.25,288.876,277.776,288.876,277.776z"/>
<g>
	<path style="fill:#4D4D4D;" d="M281.016,289.708c-0.113,0.113-0.237,0.226-0.361,0.338c-0.44,0.406-0.891,0.835-1.353,1.263
		c-0.925,0.868-1.928,1.725-2.977,2.628c-1.105,0.812-2.289,1.579-3.507,2.413c-0.609,0.417-1.241,0.823-1.883,1.229
		c-0.643,0.383-1.331,0.699-2.03,1.049c-1.376,0.699-2.808,1.376-4.285,2.053c-3.045,1.038-6.214,2.255-9.597,2.763
		c-3.338,0.778-6.823,0.902-10.296,1.071c-3.473-0.169-6.958-0.282-10.296-1.06c-3.383-0.508-6.552-1.725-9.597-2.763
		c-1.477-0.665-2.91-1.342-4.297-2.041c-0.688-0.35-1.376-0.665-2.03-1.049c-0.632-0.417-1.263-0.812-1.872-1.229
		c-1.218-0.835-2.413-1.613-3.519-2.413c-1.049-0.902-2.041-1.771-2.977-2.628c-0.462-0.44-0.902-0.857-1.342-1.274
		c-0.158-0.147-0.316-0.293-0.474-0.44c0.361,0.124,0.722,0.248,1.094,0.372c0.891,0.293,1.782,0.643,2.729,0.981
		c0.936,0.372,1.996,0.609,3.045,0.925c1.049,0.304,2.098,0.665,3.192,1.004c1.139,0.237,2.278,0.541,3.451,0.823
		c0.586,0.135,1.162,0.293,1.748,0.451c0.598,0.135,1.218,0.214,1.827,0.338c1.229,0.214,2.458,0.474,3.688,0.744
		c2.56,0.248,5.086,0.812,7.725,0.902c2.605,0.35,5.267,0.248,7.906,0.417c2.65-0.158,5.312-0.056,7.917-0.406
		c2.639-0.09,5.165-0.654,7.725-0.891c1.229-0.271,2.458-0.53,3.688-0.744c0.609-0.124,1.229-0.203,1.827-0.338
		c0.586-0.158,1.173-0.316,1.748-0.451c1.173-0.282,2.312-0.586,3.451-0.823c1.105-0.338,2.154-0.71,3.203-1.004
		c1.038-0.316,2.12-0.575,3.022-0.913c0.925-0.327,1.793-0.665,2.673-0.947C280.328,289.945,280.677,289.821,281.016,289.708z"/>
	<path style="fill:#4D4D4D;" d="M194.524,239.999c-4.671,0-8.458-3.787-8.458-8.458v-13.529c0-4.671,3.787-8.458,8.458-8.458
		s8.458,3.787,8.458,8.458v13.529C202.982,236.212,199.195,239.999,194.524,239.999z"/>
</g>
<g>
	<path style="fill:#666666;" d="M275.594,191.511c0,0,0.023-0.224,0.098-0.61c0.087-0.373,0.175-0.963,0.364-1.631
		c0.085-0.345,0.194-0.705,0.319-1.101c0.164-0.401,0.383-0.805,0.617-1.263c0.231-0.46,0.523-0.915,0.83-1.425
		c0.309-0.519,0.678-0.912,1.056-1.413c0.383-0.482,0.815-0.947,1.266-1.448c0.477-0.452,0.995-0.898,1.545-1.345
		c1.077-0.948,2.393-1.634,3.764-2.396c1.419-0.6,2.924-1.251,4.537-1.552c1.597-0.415,3.272-0.513,4.942-0.591
		c1.67,0.077,3.346,0.166,4.944,0.579c1.614,0.298,3.12,0.952,4.54,1.547c1.372,0.761,2.69,1.446,3.768,2.395
		c0.549,0.449,1.068,0.895,1.546,1.345c0.451,0.502,0.881,0.972,1.266,1.45c0.372,0.498,0.759,0.908,1.042,1.406
		c0.284,0.496,0.559,0.941,0.783,1.391c0.222,0.451,0.438,0.848,0.6,1.248c0.148,0.417,0.279,0.795,0.376,1.153
		c0.214,0.691,0.303,1.286,0.386,1.658c0.072,0.385,0.088,0.603,0.088,0.603s-0.233-0.006-0.628-0.044
		c-0.383-0.05-0.979-0.074-1.636-0.17c-0.341-0.035-0.688-0.098-1.07-0.149c-0.407-0.019-0.809-0.076-1.245-0.109
		c-0.856-0.09-1.749-0.224-2.731-0.263c-0.483-0.032-0.951-0.101-1.44-0.142c-0.506-0.007-1.006-0.033-1.502-0.07
		c-0.972-0.126-2.029-0.052-3.01-0.175c-1.032,0.037-2.02-0.089-3.043-0.058c-1.006-0.076-2.023,0.005-3.033-0.067
		c-1.009,0.069-2.027-0.019-3.035,0.054c-1.024-0.036-2.012,0.095-3.046,0.053c-0.982,0.122-2.041,0.046-3.013,0.174
		c-0.496,0.037-0.996,0.064-1.503,0.07c-0.489,0.041-0.955,0.115-1.44,0.144c-1.001,0.054-1.834,0.149-2.669,0.221
		c-0.439,0.034-0.849,0.065-1.229,0.094c-0.405,0.073-0.775,0.154-1.127,0.201c-0.682,0.121-1.279,0.149-1.658,0.197
		C275.819,191.51,275.594,191.511,275.594,191.511z"/>
	<path style="fill:#666666;" d="M175.185,191.511c0,0,0.023-0.224,0.098-0.61c0.087-0.373,0.175-0.963,0.364-1.631
		c0.085-0.345,0.194-0.705,0.319-1.101c0.164-0.401,0.383-0.805,0.617-1.263c0.231-0.46,0.523-0.915,0.83-1.425
		c0.309-0.519,0.678-0.912,1.056-1.413c0.383-0.482,0.815-0.947,1.266-1.448c0.477-0.452,0.995-0.898,1.545-1.345
		c1.077-0.948,2.393-1.634,3.764-2.396c1.419-0.6,2.924-1.251,4.537-1.552c1.597-0.415,3.272-0.513,4.942-0.591
		c1.67,0.077,3.346,0.166,4.944,0.579c1.614,0.298,3.12,0.952,4.54,1.547c1.372,0.761,2.69,1.446,3.768,2.395
		c0.549,0.449,1.068,0.895,1.546,1.345c0.451,0.502,0.881,0.972,1.266,1.45c0.372,0.498,0.759,0.908,1.042,1.406
		c0.284,0.496,0.559,0.941,0.783,1.391c0.222,0.451,0.438,0.848,0.6,1.248c0.148,0.417,0.279,0.795,0.376,1.153
		c0.214,0.691,0.303,1.286,0.386,1.658c0.072,0.385,0.088,0.603,0.088,0.603s-0.233-0.006-0.628-0.044
		c-0.383-0.05-0.979-0.074-1.636-0.17c-0.341-0.035-0.688-0.098-1.07-0.149c-0.407-0.019-0.809-0.076-1.245-0.109
		c-0.856-0.09-1.749-0.224-2.731-0.263c-0.483-0.032-0.951-0.101-1.44-0.142c-0.506-0.007-1.006-0.033-1.502-0.07
		c-0.972-0.126-2.029-0.052-3.01-0.175c-1.032,0.037-2.02-0.089-3.043-0.058c-1.006-0.076-2.023,0.005-3.033-0.067
		c-1.009,0.069-2.027-0.019-3.035,0.054c-1.024-0.036-2.012,0.095-3.046,0.053c-0.982,0.122-2.041,0.046-3.013,0.174
		c-0.496,0.037-0.996,0.064-1.503,0.07c-0.489,0.041-0.955,0.115-1.44,0.144c-1.001,0.054-1.834,0.149-2.669,0.221
		c-0.439,0.034-0.849,0.065-1.229,0.094c-0.405,0.073-0.775,0.154-1.127,0.201c-0.682,0.121-1.279,0.149-1.658,0.197
		C175.412,191.51,175.185,191.511,175.185,191.511z"/>
</g>
<path style="fill:#4D4D4D;" d="M294.932,239.999c-4.671,0-8.458-3.787-8.458-8.458v-13.529c0-4.671,3.787-8.458,8.458-8.458
	c4.671,0,8.458,3.787,8.458,8.458v13.529C303.39,236.212,299.603,239.999,294.932,239.999z"/>
<path style="fill:#E0B394;" d="M257.697,205.608v40.035c0,7.162-5.807,12.969-12.969,12.969l0,0
	c-7.162,0-12.969-5.807-12.969-12.969v-40.035"/>
<g>
	<circle style="fill:#FFFFFF;" cx="460.123" cy="452.432" r="8.458"/>
	<circle style="fill:#FFFFFF;" cx="474.784" cy="437.771" r="8.458"/>
	<circle style="fill:#FFFFFF;" cx="445.463" cy="437.771" r="8.458"/>
	<circle style="fill:#FFFFFF;" cx="460.123" cy="423.11" r="8.458"/>
</g>
<circle style="fill:#71C5F4;" cx="8.458" cy="308.44" r="8.458"/>
<circle style="fill:#666666;" cx="67" cy="281.115" r="8.458"/>
<g>
</g>
<g>
</g>
<g>
</g>
<g>
</g>
<g>
</g>
<g>
</g>
<g>
</g>
<g>
</g>
<g>
</g>
<g>
</g>
<g>
</g>
<g>
</g>
<g>
</g>
<g>
</g>
<g>
</g>
</svg>
